PathFileType	4	(X/Y/Z)	paretic_post_fc0300a5.trc
DataRate	CameraRate	NumFrames	NumMarkers	Units	OrigDataRate	OrigDataStartFrame	OrigNumFrames
56.76	56.76	24	11	cm	56.76	163	433
Frame#	Time	NOSE			LEFT_SHOULDER			RIGHT_SHOULDER			LEFT_ELBOW			RIGHT_ELBOW			LEFT_WRIST			RIGHT_WRIST			LEFT_HIP			RIGHT_HIP			LEFT_INDEX			RIGHT_INDEX		
		X1	Y1	Z1	X2	Y2	Z2	X3	Y3	Z3	X4	Y4	Z4	X5	Y5	Z5	X6	Y6	Z6	X7	Y7	Z7	X8	Y8	Z8	X9	Y9	Z9	X10	Y10	Z10	X11	Y11	Z11
198	3.4882862903225806	5.410277	-63.222304	-36.595894	8.828601	-52.138415	5.629947	-24.407271	-57.530578	-10.595960	14.400680	-23.964065	7.125633	-29.240026	-17.804619	-21.424152	29.191700	-7.977456	-2.478294	-13.470900	-2.614407	-35.103932	10.398957	-2.650639	12.015131	-10.071199	2.063564	-11.563928	30.856979	-5.681012	-7.499927	1.118018	-8.522628	-45.162829
199	3.5059038978494623	5.412083	-63.188662	-36.427155	8.820297	-52.137104	5.573861	-24.432112	-57.505199	-10.687116	14.398849	-23.979755	7.105136	-29.150265	-17.729797	-21.539750	29.146261	-8.045983	-2.356214	-13.245590	-2.588084	-35.219254	10.395732	-2.666623	12.019431	-10.068971	2.078135	-11.569157	30.789910	-5.773338	-7.354906	1.392839	-8.526345	-45.304558
200	3.523521505376344	5.390655	-63.187028	-35.983327	8.813139	-52.124398	6.297063	-24.402741	-57.491413	-10.514698	14.430701	-23.982217	7.714308	-28.818054	-17.672696	-21.418145	29.147052	-8.050972	-2.059271	-12.902771	-2.497224	-35.021835	10.383684	-2.666992	12.038244	-10.058490	2.077766	-11.587352	30.782867	-5.781245	-7.084783	1.711284	-8.453174	-45.131425
201	3.5411391129032257	5.047882	-63.171595	-36.060912	8.610310	-52.117843	6.002046	-24.729892	-57.478258	-10.500215	14.329844	-23.980356	7.353072	-28.882274	-17.650488	-21.495775	28.898980	-8.055877	-2.351516	-12.989934	-2.509321	-35.331048	10.382616	-2.682433	12.039495	-10.057671	2.092010	-11.588358	30.417830	-5.795608	-7.403105	1.621057	-8.470436	-45.519393
202	3.558756720430108	5.041081	-63.206608	-35.942507	8.731825	-52.116706	6.137991	-24.717115	-57.539452	-10.459004	14.342218	-23.904523	7.192862	-28.143937	-17.662196	-21.473544	28.852457	-8.115695	-3.253193	-12.378255	-2.519583	-35.256716	10.385904	-2.685582	12.041051	-10.063117	2.094230	-11.590238	30.332613	-5.979004	-8.430873	1.955537	-8.498396	-45.389836
203	3.5763743279569895	5.029429	-63.221155	-35.641378	8.626654	-52.249812	6.462953	-24.737829	-57.570884	-10.421383	14.260016	-24.040281	7.315600	-28.001512	-17.714038	-21.378337	28.802397	-8.174205	-2.884532	-12.363498	-2.533207	-35.205707	10.384365	-2.690412	12.042223	-10.061589	2.098877	-11.591206	30.327828	-5.988182	-7.950519	1.945066	-8.457361	-45.309916
204	3.593991935483871	4.900737	-63.239420	-35.460258	8.528906	-52.259932	6.853799	-24.753333	-57.563856	-10.005308	14.248280	-24.103049	8.299701	-27.935335	-17.721708	-20.803361	28.734490	-8.179874	-1.111871	-12.426374	-2.438590	-34.440607	10.381486	-2.694590	12.043524	-10.058783	2.102257	-11.592314	30.214762	-5.984708	-6.032587	1.882914	-8.253238	-44.525385
205	3.611609543010753	4.907538	-63.530429	-34.561974	8.561520	-52.378034	7.267083	-24.726869	-57.623322	-9.496611	14.251301	-24.122971	8.351671	-27.541035	-17.729077	-20.509097	28.735746	-8.315449	-1.227629	-12.131441	-2.516420	-34.289037	10.382930	-2.697807	12.043367	-10.060902	2.105442	-11.592009	30.226298	-6.157975	-6.185987	2.036704	-8.370329	-44.393917
206	3.6292271505376346	4.869386	-63.531501	-34.943934	8.378253	-52.404364	6.974801	-24.756321	-57.619037	-10.053739	14.232973	-24.232740	7.962155	-27.454980	-17.735933	-21.180737	28.547646	-8.406047	-1.872490	-12.040224	-2.468876	-34.726873	10.369732	-2.707587	12.069745	-10.047117	2.114569	-11.619723	29.849737	-6.199606	-6.865655	2.097007	-8.225216	-44.800337
207	3.6468447580645162	4.869959	-63.595398	-33.886872	8.380778	-52.407411	8.273791	-24.664480	-57.622889	-9.048043	14.157056	-24.216073	9.495441	-27.275822	-17.721045	-19.883759	28.554142	-8.386894	0.166341	-11.574909	-2.337406	-33.123306	10.366763	-2.708245	12.076095	-10.044369	2.115036	-11.626160	29.962297	-6.177234	-4.556174	2.672607	-8.091048	-43.108649
208	3.664462365591398	4.868953	-63.631569	-33.118509	8.335361	-52.489399	8.660397	-24.663889	-57.692466	-8.574004	14.159791	-24.226373	10.008045	-27.095618	-17.725101	-19.401030	28.596431	-8.384436	1.006674	-11.450275	-2.344442	-32.700053	10.364854	-2.709161	12.076516	-10.042658	2.115839	-11.626587	30.083084	-6.172313	-3.631647	2.736363	-8.105259	-42.665735
209	3.6820799731182796	4.855780	-63.644367	-34.733509	8.362083	-52.519549	7.564293	-24.646326	-57.682007	-9.503200	14.167529	-24.258206	8.554857	-26.759209	-17.730317	-20.885581	28.602460	-8.485582	-1.362377	-11.168228	-2.351575	-34.509873	10.363916	-2.719116	12.083605	-10.041757	2.127144	-11.633734	30.090853	-6.230124	-6.401827	2.928825	-8.109111	-44.544362
210	3.6996975806451613	5.042114	-63.969394	-33.787230	8.360414	-52.915537	8.083357	-24.501382	-57.917029	-9.339587	14.169803	-24.708654	8.937774	-26.596111	-17.925962	-20.653771	28.612791	-8.829748	-1.153559	-10.931572	-2.379481	-33.846473	10.361522	-2.718809	12.094022	-10.038548	2.126997	-11.646696	30.120784	-6.472801	-6.154737	3.235562	-8.111038	-43.685159
211	3.717315188172043	4.914452	-64.047206	-32.680638	8.169247	-52.940297	8.405989	-24.595746	-57.962393	-8.694336	13.939207	-24.713921	8.928126	-26.678679	-17.928965	-20.178134	28.427620	-8.831149	-1.759757	-11.014985	-2.353820	-33.586919	10.360244	-2.716928	12.092033	-10.036495	2.124350	-11.643994	29.931292	-6.465682	-6.891431	3.165499	-7.922291	-43.431058
212	3.7349327956989247	4.892139	-64.365706	-31.591483	8.188221	-53.122979	9.106856	-24.581393	-58.161350	-7.769611	13.943860	-24.745250	8.960396	-26.502423	-18.025661	-19.330783	28.432635	-8.922775	-1.739672	-10.902210	-2.358933	-32.753245	10.362322	-2.716739	12.093046	-10.038959	2.122983	-11.644971	29.940388	-6.514770	-6.851564	3.213737	-7.890325	-42.534361
213	3.7525504032258064	4.883854	-64.369275	-31.589342	8.176609	-53.114353	9.093964	-24.592112	-58.130865	-7.695291	13.909014	-24.738895	8.956507	-26.565526	-17.962450	-19.249806	28.373962	-8.939405	-1.823206	-10.937392	-2.323898	-32.761050	10.365910	-2.717014	12.076165	-10.042480	2.123290	-11.627960	29.869228	-6.560110	-6.924745	3.205749	-7.837824	-42.551590
214	3.7701680107526885	4.931008	-64.650786	-30.936299	8.173133	-53.341380	9.668402	-24.524764	-58.206302	-7.516512	13.956840	-25.129706	10.023043	-26.579134	-18.015482	-18.921466	28.445705	-9.098208	-0.206773	-10.859270	-2.376071	-32.254731	10.359927	-2.712562	12.089017	-10.036272	2.118746	-11.642952	29.951821	-6.630687	-5.051090	3.365201	-7.885884	-41.954339
215	3.78778561827957	4.867534	-64.672014	-31.130965	8.077290	-53.374127	9.452644	-24.566929	-58.200086	-7.750763	13.958924	-25.178416	9.818537	-26.524759	-18.006238	-19.036444	28.415391	-9.137787	-0.693248	-10.844138	-2.318240	-32.332760	10.359258	-2.712703	12.091370	-10.035526	2.118751	-11.645270	29.834609	-6.660723	-5.623256	3.350869	-7.738436	-42.056648
216	3.805403225806452	4.868606	-64.893614	-30.308699	8.098929	-53.365189	10.597494	-24.467864	-58.220116	-6.841835	14.027887	-25.086729	10.539561	-26.262803	-17.981562	-18.380109	28.619981	-9.064903	-0.326941	-10.746204	-2.304423	-31.979995	10.355796	-2.698635	12.109594	-10.032061	2.103668	-11.664019	30.172238	-6.600068	-5.280930	3.371229	-7.724737	-41.687892
217	3.8230208333333335	4.934309	-64.974935	-29.625838	8.176675	-53.404511	10.949662	-24.376490	-58.256004	-6.401844	14.350392	-25.087840	10.732285	-26.001780	-17.987645	-18.065854	28.835162	-9.067680	-0.201196	-10.527490	-2.312501	-31.795010	10.355052	-2.693670	12.110679	-10.031385	2.098278	-11.665810	30.329900	-6.603355	-5.139866	3.581453	-7.732640	-41.539980
218	3.840638440860215	4.783099	-64.884801	-30.554135	7.806140	-53.406846	10.221930	-24.559804	-58.240619	-7.184498	13.915100	-25.098413	10.295693	-26.019075	-17.891034	-18.340335	28.488429	-9.029184	-0.500846	-10.567347	-2.191985	-31.789181	10.352771	-2.696175	12.118359	-10.027916	2.101025	-11.673793	30.054772	-6.465764	-5.424164	3.549716	-7.595184	-41.506945
219	3.858256048387097	5.192843	-65.074136	-30.631943	8.174137	-53.465891	10.187490	-23.883665	-58.242525	-7.246786	13.947950	-25.091415	10.280187	-25.092995	-17.881233	-18.378466	28.529488	-9.047863	-0.592923	-9.531942	-2.196117	-31.812683	10.352039	-2.693867	12.168729	-10.027236	2.097645	-11.730936	30.159792	-6.515754	-5.499365	4.497204	-7.603314	-41.533166
220	3.8758736559139786	5.082681	-64.880973	-31.838375	7.792651	-53.461157	9.135336	-24.075681	-58.082332	-8.278659	13.549321	-25.101122	9.816021	-25.169306	-17.722028	-19.031906	28.222664	-8.994105	-0.664208	-9.557526	-2.116343	-31.865838	10.343909	-2.699250	12.169715	-10.017003	2.103576	-11.731886	29.932722	-6.371081	-5.548318	4.440524	-7.524872	-41.545515
221	3.8934912634408603	5.080476	-64.936134	-32.163195	7.784815	-53.519886	8.812941	-24.078556	-58.081875	-8.961229	13.443568	-25.169000	9.567983	-25.166927	-17.720567	-19.607771	28.198954	-9.147070	-0.838429	-9.574692	-2.184265	-32.314100	10.338752	-2.702542	12.206833	-10.012896	2.105332	-11.769508	29.933752	-6.527113	-5.730902	4.410835	-7.688141	-42.030747
